<svg width="100" height="100" viewBox="0 0 100 100" fill="none" xmlns="http://www.w3.org/2000/svg">
<g clip-path="url(#clip0_160_163)">
<path d="M9.52499 96.875C11.625 75.9063 34.7187 72 35.75 71.8375L58.4812 71.875C59.0375 72.0063 82.1125 75.9813 84.2187 96.875H9.52499Z" fill="#E9E2E0"/>
<path d="M57.9437 75C60.8812 75.5563 76.8625 79.2313 80.5125 93.75H13.25C16.9187 79.2688 32.9625 75.55 35.8188 75H57.9437ZM58.4813 68.75H35.2688C35.2688 68.75 6.25 73.2312 6.25 100H87.5C87.5 73.325 58.4813 68.75 58.4813 68.75Z" fill="#788B9C"/>
<path d="M46.9625 78.0688C43.4063 78.0688 39.9063 77.1375 37.1 75.4313L34.3875 73.7813L34.6063 53.125H59.375V73.8625L56.8688 75.4062C54.0563 77.125 50.5438 78.0688 46.9625 78.0688Z" fill="#DEB974"/>
<path d="M56.25 56.25V72.1187L55.2312 72.7437C52.9062 74.1687 49.9688 74.95 46.9625 74.95C43.9688 74.95 41.05 74.175 38.7313 72.7687L37.5375 72.0438L37.7 56.25H56.25ZM62.5 50H31.5188L31.25 75.5312L35.4813 78.1062C38.875 80.1687 42.9187 81.2 46.9563 81.2C51.025 81.2 55.0875 80.1562 58.4938 78.075L62.5 75.6187V50Z" fill="#967A44"/>
<path d="M46.875 65.625C45.2625 65.625 43.7313 65 42.55 63.8687L41.9813 63.3187L41.2187 63.1125C33.925 61.0812 28.7188 55.5125 28.25 49.25L28.1188 47.3687L26.3875 46.6188C24.1125 45.625 21.875 41.6562 21.875 38.6063V31.675L26.3438 15.625H66.4625L71.875 31.7625V38.6063L71.8125 39.0125C71.5625 42.0813 69.4688 45.625 67.3312 46.5938L65.6375 47.3563L65.5 49.2188C65.0562 55.4875 59.8375 61.0687 52.525 63.1125L51.7625 63.3187L51.1938 63.8687C50.0187 65 48.4875 65.625 46.875 65.625Z" fill="#F5CE85"/>
<path d="M64.2187 18.75L68.75 32.2688V38.0937L68.6938 38.7625C68.5187 40.8875 66.9375 43.3313 66.0375 43.7437L62.6437 45.2812L62.3812 48.9938C62.0312 53.95 57.7313 58.4125 51.6875 60.1L50.1688 60.525L49.0312 61.6188C48.6125 62.0188 47.9 62.5 46.875 62.5C45.85 62.5 45.1375 62.0188 44.7188 61.6188L43.5813 60.525L42.0625 60.1C36.0375 58.4188 31.7375 53.9688 31.3688 49.0187L31.0937 45.2625L27.6375 43.7563C26.6937 43.3438 25 40.5875 25 38.6063V32.1063L28.7187 18.75H64.2187ZM68.7125 12.5H23.975L18.75 31.25V38.6063C18.75 42.575 21.4687 47.8812 25.1375 49.4812C25.7187 57.325 32.1 63.8063 40.3813 66.1188C42.0688 67.7438 44.35 68.75 46.875 68.75C49.4 68.75 51.6813 67.7438 53.3625 66.1188C61.6625 63.8063 68.0562 57.3 68.6125 49.4375C72.05 47.8812 74.6063 43.15 74.9188 39.2687L75 39.1625V31.25L68.7125 12.5Z" fill="#967A44"/>
<path d="M71.8438 36.6688C71.1 27.5438 58.3812 20.9813 56.8937 20.2437L54.9125 19.2687L53.3188 20.8125C53.25 20.8875 45.65 28.125 34.125 28.125C26.2188 28.125 22.3563 32.4125 21.9125 36.6688H21.875V31.975C23.125 29.375 24.2062 26.5625 25.2562 23.8375C29.5312 12.725 33.2188 3.125 46.875 3.125C54.6625 3.125 58.3563 8.0125 58.3938 8.0625L59.325 9.375H60.9375C62.7812 9.375 64.7875 15.5375 66.1125 19.6187C67.6375 24.3188 69.2125 29.1625 71.875 32.4438V36.675L71.8438 36.6688Z" fill="#A6714E"/>
<path d="M46.875 6.25C52.9437 6.25 55.8 9.825 55.8438 9.875L57.7125 12.5H59.975C60.9562 13.95 62.1875 17.675 63.0063 20.2C60.8875 18.7938 59.0938 17.8563 58.275 17.45L54.2938 15.475L51.1187 18.5938C51.0562 18.6562 44.325 25 34.125 25C31.725 25 29.6187 25.3375 27.8 25.925C27.925 25.6 28.05 25.2812 28.1687 24.9625C32.7688 13.0125 35.9 6.25 46.875 6.25ZM46.875 0C26.8375 0 25 18.75 18.75 31.25C18.75 38.85 18.75 39.8 18.75 39.8H25V39.8187C25 39.8187 25 39.5812 25 37.5C25 34.6 27.5 31.25 34.125 31.25C47.1687 31.25 55.5 23.05 55.5 23.05C55.5 23.05 68.75 29.6063 68.75 37.5C68.75 39.5438 68.75 39.8625 68.75 39.8625V39.8H75C75 38.85 75 36.5062 75 31.25C68.75 25 68.1937 6.25 60.9375 6.25C60.9375 6.25 56.4875 0 46.875 0ZM75 39.8V40.375C75 40.375 75 40.2313 75 39.8Z" fill="#7A4F34"/>
<path d="M22.1437 28.125C22.8437 18.6062 24.7437 9.1625 25.5 5.6875C27.5312 4.8875 33.5125 3.125 46.875 3.125C60.15 3.125 66.1375 4.8625 68.2562 5.7C69.0125 9.1875 70.9062 18.6125 71.6062 28.125H22.1437Z" fill="#E9E2E0"/>
<path d="M46.875 6.25C57.2437 6.25 62.8812 7.33125 65.5687 8.09375C66.3125 11.7312 67.5 18.1562 68.1937 25H25.5562C26.25 18.1625 27.4437 11.7375 28.1875 8.09375C30.8687 7.33125 36.5125 6.25 46.875 6.25ZM46.875 0C27.5437 0 22.7687 3.56875 22.7687 3.56875C22.7687 3.56875 19.3937 17.8563 18.8375 31.25H74.9187C74.3625 17.8563 70.9875 3.56875 70.9875 3.56875C70.9875 3.56875 66.2125 0 46.875 0Z" fill="#788B9C"/>
<path d="M43.75 6.25H50V25H43.75V6.25Z" fill="#C74343"/>
<path d="M37.5 12.5H56.25V18.75H37.5V12.5Z" fill="#C74343"/>
</g>
<defs>
<clipPath id="clip0_160_163">
<rect width="100" height="100" fill="white"/>
</clipPath>
</defs>
</svg>
