<svg width="100" height="100" viewBox="0 0 100 100" fill="none" xmlns="http://www.w3.org/2000/svg">
<path d="M15.625 96.875V93.75C15.625 70 37.1438 65.7438 38.0563 65.575L62.5 65.625C62.8438 65.75 84.375 70.0875 84.375 93.75V96.875H15.625Z" fill="#9CBFED"/>
<path d="M61.8625 68.75C64.975 69.4625 81.25 74.1437 81.25 93.75H18.75C18.75 74.1875 34.7 69.525 38.1375 68.75H61.8625ZM62.5 62.5H37.5C37.5 62.5 12.5 66.9812 12.5 93.75V100H87.5V93.75C87.5 67.075 62.5 62.5 62.5 62.5Z" fill="#4E7AB5"/>
<path d="M66.1 63.5312C63.9438 62.775 62.5 62.5 62.5 62.5H56.25V68.75H66.1V63.5312Z" fill="#E1EBF2"/>
<path d="M62.5 62.5H56.25V68.75H66.1V63.5312C63.9438 62.775 62.5 62.5 62.5 62.5Z" fill="#788B9C"/>
<path d="M37.825 65.6241C37.9813 65.5872 38.075 65.5687 38.075 65.5687L40.625 65.5934V65.6241H37.825Z" fill="white"/>
<path d="M43.75 62.5H37.5C37.5 62.5 34.8313 62.9937 31.25 64.5625V68.75H43.75V62.5Z" fill="#788B9C"/>
<path d="M44.8875 96.875L63.2938 72.325L59.7875 96.875H44.8875Z" fill="#E1EBF2"/>
<path d="M58.4813 83.9563L57.0813 93.75H51.1375L58.4813 83.9563ZM66.2313 63.575L62.5 68.1813L38.6375 100H62.5L67.625 64.1125C67.1438 63.9188 66.6688 63.725 66.2313 63.575Z" fill="#788B9C"/>
<path d="M50 96.875C48.275 96.875 46.875 95.4688 46.875 93.75C46.875 92.0312 48.275 90.625 50 90.625H62.5C64.225 90.625 65.625 92.0312 65.625 93.75C65.625 95.4688 64.225 96.875 62.5 96.875H50Z" fill="#F5CE85"/>
<path d="M62.5 87.5H50C46.5625 87.5 43.75 90.3125 43.75 93.75C43.75 97.1875 46.5625 100 50 100H62.5C65.9375 100 68.75 97.1875 68.75 93.75C68.75 90.3125 65.9375 87.5 62.5 87.5Z" fill="#967A44"/>
<path d="M50 71.875C44.2625 71.875 41.5 68.625 40.625 67.3313V54.2625H59.375V67.3313C58.4937 68.6188 55.7063 71.875 50 71.875Z" fill="#DEB974"/>
<path d="M56.25 57.3875V66.25C55.3125 67.275 53.375 68.75 50 68.75C46.5938 68.75 44.6562 67.25 43.75 66.2688V57.3875H56.25ZM62.5 51.1375H37.5V68.1813C37.5 68.1813 40.8375 75 50 75C59.1625 75 62.5 68.1813 62.5 68.1813V51.1375Z" fill="#967A44"/>
<path d="M50 59.375C48.4937 59.375 47.4875 58.4688 47.0187 57.9375L46.4188 57.25L45.5562 56.9812C39.8813 55.2937 35.7063 50.65 34.6625 44.8875L34.2562 42.65L32.0062 42.3438C30.6875 42.1625 28.75 39.8125 28.2375 37.05L28.125 36.4688V25.5625L31.8125 15.625H67.3813L71.875 25.6625V36.675L71.7625 37.05C71.25 39.8125 69.3125 42.1625 67.9937 42.3438L65.7438 42.65L65.3375 44.8813C64.2938 50.65 60.1188 55.2875 54.4438 56.9812L53.575 57.2438L52.9813 57.9375C52.5125 58.4688 51.5063 59.375 50 59.375Z" fill="#F5CE85"/>
<path d="M65.3625 18.75L68.75 26.3312V36.1688L68.6938 36.475C68.4562 37.7625 67.675 38.9125 67.2375 39.2875L63.0687 39.85L62.2625 44.325C61.4312 48.9313 58.0938 52.6312 53.55 53.9938L51.8062 54.5125L50.6125 55.8875C50.4062 56.1313 50.2 56.25 50 56.25C49.8 56.25 49.5938 56.1313 49.3875 55.8875L48.1938 54.5125L46.45 53.9938C41.9063 52.6375 38.5688 48.9312 37.7375 44.3312L36.9312 39.85L32.7625 39.2875C32.325 38.9125 31.55 37.7625 31.3062 36.475L31.25 36.2437V26.125L33.9875 18.75H65.3625ZM69.4125 12.5H29.6438L25 25V37.5L25.1625 37.6187C25.8125 41.1125 28.4125 45.0125 31.5875 45.4375C32.85 52.4188 37.9688 57.9813 44.6625 59.9813C45.9688 61.4938 47.8438 62.5 50 62.5C52.1562 62.5 54.0312 61.4938 55.3375 59.9813C62.0312 57.9813 67.15 52.4188 68.4125 45.4375C71.5875 45.0062 74.1875 41.1063 74.8375 37.6187L75 37.5V25L69.4125 12.5Z" fill="#967A44"/>
<path d="M71.675 34.375C70.1438 26.0938 60.2938 20.8687 59.0875 20.2563L56.9687 19.1875L55.3625 20.9375C55.2937 21.0125 48.6625 28.125 38.6687 28.125C31.5 28.125 29.15 31.5625 28.425 34.375H28.125V21.575C28.125 12.6562 33.8687 3.125 50 3.125C56.625 3.125 59.7437 7.74375 59.875 7.94375L60.8 9.35L62.5 9.375C67.1063 9.375 71.875 13.325 71.875 19.9312V34.375H71.675Z" fill="#A6714E"/>
<path d="M50 6.25C54.7563 6.25 57.0375 9.34375 57.2188 9.59375L59.0563 12.5H62.5C65.575 12.5 68.75 15.2812 68.75 19.9313V23.4438C65.1813 19.9375 61.2687 17.8625 60.4937 17.475L56.2312 15.3125L53.0312 18.8563C52.975 18.9188 47.25 25 38.6687 25C35.6312 25 33.1875 25.55 31.25 26.4813V21.575C31.25 17.9813 32.6 6.25 50 6.25ZM50 0C32.1875 0 25 11.0375 25 21.575C25 29.175 25 37.5 25 37.5H31.25V36.7875C31.25 33.8938 32.7812 31.25 38.6687 31.25C50.2625 31.25 57.6688 23.05 57.6688 23.05C57.6688 23.05 68.75 28.6563 68.75 36.55C68.75 37.8063 68.75 38.1688 68.75 38.1688V37.5H75C75 37.5 75 32.375 75 19.9313C75 11.7 68.95 6.25 62.5 6.25C62.5 6.25 58.5438 0 50 0Z" fill="#7A4F34"/>
<path d="M15.625 96.875V93.75C15.625 75.3812 28.475 68.6562 34.9687 66.4437L53.2313 96.875H15.625Z" fill="white"/>
<path d="M33.65 70.3062L47.7125 93.75H18.75C18.75 79.3563 27.575 72.9875 33.65 70.3062ZM36.4 62.75C31.5813 63.9875 12.5 70.3625 12.5 93.75V100H58.75L36.4 62.75Z" fill="#788B9C"/>
</svg>
